<svg preserveAspectRatio="none" width="100%" height="100%" overflow="visible" style="display: block;" viewBox="0 0 286.767 286.767" fill="none" xmlns="http://www.w3.org/2000/svg">
<g id="Frame 427321894" clip-path="url(#clip0_0_456)">
<path id="Subtract" d="M17.2061 0C17.2061 6.33508 22.3417 11.4707 28.6768 11.4707C34.814 11.4706 39.8258 6.65077 40.1328 0.589844L40.1475 0H55.4414C55.4414 6.33502 60.5771 11.4706 66.9121 11.4707C73.2472 11.4707 78.3828 6.33506 78.3828 0H93.6768C93.6768 6.33491 98.8126 11.4705 105.147 11.4707C111.483 11.4707 116.618 6.33505 116.618 0H131.913C131.913 6.33507 137.049 11.4707 143.384 11.4707C149.521 11.4706 154.532 6.6507 154.839 0.589844L154.854 0H170.148C170.148 6.33508 175.284 11.4707 181.619 11.4707C187.756 11.4706 192.768 6.65077 193.075 0.589844L193.09 0H208.384C208.384 6.33499 213.52 11.4706 219.854 11.4707C226.19 11.4707 231.325 6.33507 231.325 0H246.619C246.619 6.33491 251.755 11.4705 258.09 11.4707C264.425 11.4707 269.56 6.33505 269.561 0H286.767V17.2061C280.432 17.2062 275.296 22.3418 275.296 28.6768C275.296 34.8139 280.116 39.8257 286.177 40.1328L286.767 40.1475V55.4414C280.432 55.4416 275.296 60.5772 275.296 66.9121C275.296 73.2471 280.432 78.3826 286.767 78.3828V93.6768C280.432 93.677 275.297 98.8127 275.297 105.147C275.297 111.482 280.432 116.617 286.767 116.617V131.913C280.432 131.913 275.297 137.049 275.297 143.384C275.297 149.521 280.116 154.532 286.177 154.839L286.767 154.854V170.148C280.432 170.149 275.296 175.284 275.296 181.619C275.296 187.756 280.116 192.768 286.177 193.075L286.767 193.09V208.384C280.432 208.384 275.296 213.52 275.296 219.854C275.296 226.189 280.432 231.325 286.767 231.325V246.62C280.432 246.62 275.296 251.756 275.296 258.091C275.296 264.228 280.116 269.239 286.177 269.546L286.767 269.562V286.767H269.561C269.56 280.432 264.425 275.297 258.09 275.297C251.755 275.297 246.62 280.432 246.62 286.767H231.325C231.325 280.432 226.189 275.296 219.854 275.296C213.52 275.296 208.384 280.432 208.384 286.767H193.09C193.09 280.432 187.954 275.296 181.619 275.296C175.284 275.296 170.149 280.432 170.148 286.767H154.854C154.854 280.432 149.719 275.296 143.384 275.296C137.049 275.296 131.913 280.432 131.913 286.767H116.618C116.618 280.432 111.482 275.296 105.147 275.296C98.8127 275.296 93.6769 280.432 93.6768 286.767H78.3828C78.3826 280.432 73.247 275.296 66.9121 275.296C60.5773 275.296 55.4417 280.432 55.4414 286.767H40.1475C40.1472 280.432 35.0117 275.296 28.6768 275.296C22.3418 275.296 17.2063 280.432 17.2061 286.767H0V269.561C6.33508 269.561 11.4707 264.425 11.4707 258.09C11.4705 251.755 6.33496 246.619 0 246.619V231.325C6.33505 231.325 11.4707 226.19 11.4707 219.854C11.4706 213.52 6.33498 208.384 0 208.384V193.09C6.33505 193.09 11.4707 187.954 11.4707 181.619C11.4707 175.284 6.33503 170.148 0 170.148V154.854C6.33498 154.854 11.4706 149.719 11.4707 143.384C11.4707 137.247 6.6508 132.235 0.589844 131.928L0 131.913V116.618C6.33508 116.618 11.4707 111.483 11.4707 105.147C11.4705 98.8126 6.33494 93.6768 0 93.6768V78.3828C6.33508 78.3828 11.4707 73.2472 11.4707 66.9121C11.4706 60.5771 6.33503 55.4414 0 55.4414V40.1475C6.33504 40.1474 11.4707 35.0118 11.4707 28.6768C11.4707 22.5395 6.6508 17.5277 0.589844 17.2207L0 17.2061V0H17.2061Z" fill="var(--fill-0, #FBFAF9)"/>
<g id="Frame 427321895">
<rect x="22.9414" y="22.9414" width="240.884" height="240.884" rx="9.5589" fill="var(--fill-0, #EEECE8)"/>
</g>
</g>
<defs>
<clipPath id="clip0_0_456">
<rect width="286.767" height="286.767" fill="white"/>
</clipPath>
</defs>
</svg>
